<mxfile host="app.diagrams.net" modified="2022-01-17T18:08:00.227Z" agent="5.0 (Windows)" etag="XHgBCABTTyMs4Zw1X86a" version="16.2.7" type="github">
  <diagram id="OGzvMkW_8K8_IqBRt8yn" name="Page-1">
    <mxGraphModel dx="981" dy="566" grid="1" gridSize="10" guides="1" tooltips="1" connect="1" arrows="1" fold="1" page="1" pageScale="1" pageWidth="850" pageHeight="1100" math="0" shadow="0">
      <root>
        <mxCell id="0" />
        <mxCell id="1" parent="0" />
        <mxCell id="jHObWE2mQ-0qJGJbCngZ-7" style="edgeStyle=orthogonalEdgeStyle;rounded=0;orthogonalLoop=1;jettySize=auto;html=1;exitX=0.75;exitY=0;exitDx=0;exitDy=0;entryX=0;entryY=0.5;entryDx=0;entryDy=0;" edge="1" parent="1" source="jHObWE2mQ-0qJGJbCngZ-3" target="jHObWE2mQ-0qJGJbCngZ-4">
          <mxGeometry relative="1" as="geometry" />
        </mxCell>
        <mxCell id="jHObWE2mQ-0qJGJbCngZ-9" value="HTTP calls" style="edgeLabel;html=1;align=center;verticalAlign=middle;resizable=0;points=[];" vertex="1" connectable="0" parent="jHObWE2mQ-0qJGJbCngZ-7">
          <mxGeometry x="0.087" y="-4" relative="1" as="geometry">
            <mxPoint x="-5" y="-14" as="offset" />
          </mxGeometry>
        </mxCell>
        <mxCell id="jHObWE2mQ-0qJGJbCngZ-19" style="edgeStyle=orthogonalEdgeStyle;rounded=0;orthogonalLoop=1;jettySize=auto;html=1;exitX=0.75;exitY=1;exitDx=0;exitDy=0;entryX=0;entryY=0.5;entryDx=0;entryDy=0;" edge="1" parent="1" source="jHObWE2mQ-0qJGJbCngZ-3" target="jHObWE2mQ-0qJGJbCngZ-12">
          <mxGeometry relative="1" as="geometry" />
        </mxCell>
        <mxCell id="jHObWE2mQ-0qJGJbCngZ-20" value="connect godot networking on given port" style="edgeLabel;html=1;align=center;verticalAlign=middle;resizable=0;points=[];" vertex="1" connectable="0" parent="jHObWE2mQ-0qJGJbCngZ-19">
          <mxGeometry x="-0.337" y="2" relative="1" as="geometry">
            <mxPoint y="-6" as="offset" />
          </mxGeometry>
        </mxCell>
        <mxCell id="jHObWE2mQ-0qJGJbCngZ-3" value="Game client" style="rounded=0;whiteSpace=wrap;html=1;" vertex="1" parent="1">
          <mxGeometry x="50" y="150" width="120" height="60" as="geometry" />
        </mxCell>
        <mxCell id="jHObWE2mQ-0qJGJbCngZ-6" style="edgeStyle=orthogonalEdgeStyle;rounded=0;orthogonalLoop=1;jettySize=auto;html=1;exitX=1;exitY=0.5;exitDx=0;exitDy=0;entryX=0;entryY=0.5;entryDx=0;entryDy=0;entryPerimeter=0;" edge="1" parent="1" source="jHObWE2mQ-0qJGJbCngZ-4" target="jHObWE2mQ-0qJGJbCngZ-5">
          <mxGeometry relative="1" as="geometry" />
        </mxCell>
        <mxCell id="jHObWE2mQ-0qJGJbCngZ-10" style="edgeStyle=orthogonalEdgeStyle;rounded=0;orthogonalLoop=1;jettySize=auto;html=1;exitX=0.5;exitY=1;exitDx=0;exitDy=0;entryX=0.5;entryY=0;entryDx=0;entryDy=0;" edge="1" parent="1" source="jHObWE2mQ-0qJGJbCngZ-4" target="jHObWE2mQ-0qJGJbCngZ-8">
          <mxGeometry relative="1" as="geometry" />
        </mxCell>
        <mxCell id="jHObWE2mQ-0qJGJbCngZ-11" value="internal RPC ( gRPC )" style="edgeLabel;html=1;align=center;verticalAlign=middle;resizable=0;points=[];" vertex="1" connectable="0" parent="jHObWE2mQ-0qJGJbCngZ-10">
          <mxGeometry x="-0.2437" relative="1" as="geometry">
            <mxPoint as="offset" />
          </mxGeometry>
        </mxCell>
        <mxCell id="jHObWE2mQ-0qJGJbCngZ-4" value="General API&lt;br&gt;( Account, Login, Character Data )" style="rounded=0;whiteSpace=wrap;html=1;" vertex="1" parent="1">
          <mxGeometry x="300" y="50" width="120" height="60" as="geometry" />
        </mxCell>
        <mxCell id="jHObWE2mQ-0qJGJbCngZ-5" value="" style="shape=cylinder3;whiteSpace=wrap;html=1;boundedLbl=1;backgroundOutline=1;size=15;" vertex="1" parent="1">
          <mxGeometry x="520" y="40" width="60" height="80" as="geometry" />
        </mxCell>
        <mxCell id="jHObWE2mQ-0qJGJbCngZ-13" style="edgeStyle=orthogonalEdgeStyle;rounded=0;orthogonalLoop=1;jettySize=auto;html=1;exitX=0.5;exitY=1;exitDx=0;exitDy=0;entryX=0.5;entryY=0;entryDx=0;entryDy=0;" edge="1" parent="1" source="jHObWE2mQ-0qJGJbCngZ-8" target="jHObWE2mQ-0qJGJbCngZ-12">
          <mxGeometry relative="1" as="geometry" />
        </mxCell>
        <mxCell id="jHObWE2mQ-0qJGJbCngZ-14" value="spawn process" style="edgeLabel;html=1;align=center;verticalAlign=middle;resizable=0;points=[];" vertex="1" connectable="0" parent="jHObWE2mQ-0qJGJbCngZ-13">
          <mxGeometry x="-0.3034" relative="1" as="geometry">
            <mxPoint y="2" as="offset" />
          </mxGeometry>
        </mxCell>
        <mxCell id="jHObWE2mQ-0qJGJbCngZ-16" style="edgeStyle=orthogonalEdgeStyle;rounded=0;orthogonalLoop=1;jettySize=auto;html=1;exitX=1;exitY=0.25;exitDx=0;exitDy=0;entryX=1;entryY=0.75;entryDx=0;entryDy=0;" edge="1" parent="1" source="jHObWE2mQ-0qJGJbCngZ-8" target="jHObWE2mQ-0qJGJbCngZ-4">
          <mxGeometry relative="1" as="geometry" />
        </mxCell>
        <mxCell id="jHObWE2mQ-0qJGJbCngZ-8" value="Game Server Manager" style="rounded=0;whiteSpace=wrap;html=1;" vertex="1" parent="1">
          <mxGeometry x="300" y="200" width="120" height="60" as="geometry" />
        </mxCell>
        <mxCell id="jHObWE2mQ-0qJGJbCngZ-15" style="edgeStyle=orthogonalEdgeStyle;rounded=0;orthogonalLoop=1;jettySize=auto;html=1;exitX=1;exitY=0.25;exitDx=0;exitDy=0;entryX=1;entryY=0.5;entryDx=0;entryDy=0;" edge="1" parent="1" source="jHObWE2mQ-0qJGJbCngZ-12" target="jHObWE2mQ-0qJGJbCngZ-8">
          <mxGeometry relative="1" as="geometry" />
        </mxCell>
        <mxCell id="jHObWE2mQ-0qJGJbCngZ-17" value="report back port" style="edgeLabel;html=1;align=center;verticalAlign=middle;resizable=0;points=[];" vertex="1" connectable="0" parent="jHObWE2mQ-0qJGJbCngZ-15">
          <mxGeometry x="-0.1266" y="-2" relative="1" as="geometry">
            <mxPoint x="38" as="offset" />
          </mxGeometry>
        </mxCell>
        <mxCell id="jHObWE2mQ-0qJGJbCngZ-12" value="game server&lt;br&gt;( godot server )" style="rounded=0;whiteSpace=wrap;html=1;" vertex="1" parent="1">
          <mxGeometry x="300" y="340" width="120" height="60" as="geometry" />
        </mxCell>
        <mxCell id="jHObWE2mQ-0qJGJbCngZ-18" value="report back port" style="edgeLabel;html=1;align=center;verticalAlign=middle;resizable=0;points=[];" vertex="1" connectable="0" parent="1">
          <mxGeometry x="480.0044827586207" y="149.99520208912278" as="geometry" />
        </mxCell>
      </root>
    </mxGraphModel>
  </diagram>
</mxfile>
